<svg xmlns="http://www.w3.org/2000/svg" xmlns:xlink="http://www.w3.org/1999/xlink" width="800" zoomAndPan="magnify" viewBox="0 0 600 599.999999" height="800" preserveAspectRatio="xMidYMid meet" version="1.0"><defs><clipPath id="c91928a9dd"><path d="M 600.019531 300.003906 C 600.019531 465.703125 465.703125 600.019531 300.003906 600.019531 C 134.304688 600.019531 -0.0234375 465.703125 -0.0234375 300.003906 C -0.0234375 134.296875 134.304688 -0.0234375 300.003906 -0.0234375 C 465.703125 -0.0234375 600.019531 134.296875 600.019531 300.003906 " clip-rule="nonzero"/></clipPath><clipPath id="aad0625295"><path d="M 414.136719 469 L 458 469 L 458 600 L 414.136719 600 Z M 414.136719 469 " clip-rule="nonzero"/></clipPath><clipPath id="0dcacf3015"><path d="M 600.019531 300.003906 C 600.019531 465.703125 465.703125 600.019531 300.003906 600.019531 C 134.304688 600.019531 -0.0234375 465.703125 -0.0234375 300.003906 C -0.0234375 134.296875 134.304688 -0.0234375 300.003906 -0.0234375 C 465.703125 -0.0234375 600.019531 134.296875 600.019531 300.003906 " clip-rule="nonzero"/></clipPath><clipPath id="d6afe8412c"><path d="M 414.136719 501 L 421 501 L 421 506.632812 L 414.136719 506.632812 Z M 414.136719 501 " clip-rule="nonzero"/></clipPath><clipPath id="addf3d290d"><path d="M 600.019531 300.003906 C 600.019531 465.703125 465.703125 600.019531 300.003906 600.019531 C 134.304688 600.019531 -0.0234375 465.703125 -0.0234375 300.003906 C -0.0234375 134.296875 134.304688 -0.0234375 300.003906 -0.0234375 C 465.703125 -0.0234375 600.019531 134.296875 600.019531 300.003906 " clip-rule="nonzero"/></clipPath><clipPath id="e3d47ef92a"><path d="M 414.136719 489.179688 L 457 489.179688 L 457 576.441406 L 414.136719 576.441406 Z M 414.136719 489.179688 " clip-rule="nonzero"/></clipPath><clipPath id="9b849e8c14"><path d="M 600.019531 300.003906 C 600.019531 465.703125 465.703125 600.019531 300.003906 600.019531 C 134.304688 600.019531 -0.0234375 465.703125 -0.0234375 300.003906 C -0.0234375 134.296875 134.304688 -0.0234375 300.003906 -0.0234375 C 465.703125 -0.0234375 600.019531 134.296875 600.019531 300.003906 " clip-rule="nonzero"/></clipPath><clipPath id="3531baca32"><path d="M 393.195312 394 L 473.472656 394 L 473.472656 541.535156 L 393.195312 541.535156 Z M 393.195312 394 " clip-rule="nonzero"/></clipPath><clipPath id="59c99af1b1"><path d="M 600.019531 300.003906 C 600.019531 465.703125 465.703125 600.019531 300.003906 600.019531 C 134.304688 600.019531 -0.0234375 465.703125 -0.0234375 300.003906 C -0.0234375 134.296875 134.304688 -0.0234375 300.003906 -0.0234375 C 465.703125 -0.0234375 600.019531 134.296875 600.019531 300.003906 " clip-rule="nonzero"/></clipPath><clipPath id="98f717c194"><path d="M 393.195312 418 L 429 418 L 429 541.535156 L 393.195312 541.535156 Z M 393.195312 418 " clip-rule="nonzero"/></clipPath><clipPath id="63e0b85547"><path d="M 600.019531 300.003906 C 600.019531 465.703125 465.703125 600.019531 300.003906 600.019531 C 134.304688 600.019531 -0.0234375 465.703125 -0.0234375 300.003906 C -0.0234375 134.296875 134.304688 -0.0234375 300.003906 -0.0234375 C 465.703125 -0.0234375 600.019531 134.296875 600.019531 300.003906 " clip-rule="nonzero"/></clipPath><clipPath id="c05e407949"><path d="M 143 469 L 187 469 L 187 600 L 143 600 Z M 143 469 " clip-rule="nonzero"/></clipPath><clipPath id="9345e47da2"><path d="M 600.019531 300.003906 C 600.019531 465.703125 465.703125 600.019531 300.003906 600.019531 C 134.304688 600.019531 -0.0234375 465.703125 -0.0234375 300.003906 C -0.0234375 134.296875 134.304688 -0.0234375 300.003906 -0.0234375 C 465.703125 -0.0234375 600.019531 134.296875 600.019531 300.003906 " clip-rule="nonzero"/></clipPath><clipPath id="42f6219fed"><path d="M 144 489.179688 L 148 489.179688 L 148 548.515625 L 144 548.515625 Z M 144 489.179688 " clip-rule="nonzero"/></clipPath><clipPath id="21f5f05e7a"><path d="M 600.019531 300.003906 C 600.019531 465.703125 465.703125 600.019531 300.003906 600.019531 C 134.304688 600.019531 -0.0234375 465.703125 -0.0234375 300.003906 C -0.0234375 134.296875 134.304688 -0.0234375 300.003906 -0.0234375 C 465.703125 -0.0234375 600.019531 134.296875 600.019531 300.003906 " clip-rule="nonzero"/></clipPath><clipPath id="55873e9583"><path d="M 144 489.179688 L 187 489.179688 L 187 577 L 144 577 Z M 144 489.179688 " clip-rule="nonzero"/></clipPath><clipPath id="28398174cf"><path d="M 600.019531 300.003906 C 600.019531 465.703125 465.703125 600.019531 300.003906 600.019531 C 134.304688 600.019531 -0.0234375 465.703125 -0.0234375 300.003906 C -0.0234375 134.296875 134.304688 -0.0234375 300.003906 -0.0234375 C 465.703125 -0.0234375 600.019531 134.296875 600.019531 300.003906 " clip-rule="nonzero"/></clipPath><clipPath id="52f96d6ea9"><path d="M 126.179688 394 L 206.457031 394 L 206.457031 541.535156 L 126.179688 541.535156 Z M 126.179688 394 " clip-rule="nonzero"/></clipPath><clipPath id="ddf8e36d9d"><path d="M 600.019531 300.003906 C 600.019531 465.703125 465.703125 600.019531 300.003906 600.019531 C 134.304688 600.019531 -0.0234375 465.703125 -0.0234375 300.003906 C -0.0234375 134.296875 134.304688 -0.0234375 300.003906 -0.0234375 C 465.703125 -0.0234375 600.019531 134.296875 600.019531 300.003906 " clip-rule="nonzero"/></clipPath><clipPath id="1df7d61258"><path d="M 163 402 L 206.457031 402 L 206.457031 541.535156 L 163 541.535156 Z M 163 402 " clip-rule="nonzero"/></clipPath><clipPath id="28cbad0019"><path d="M 600.019531 300.003906 C 600.019531 465.703125 465.703125 600.019531 300.003906 600.019531 C 134.304688 600.019531 -0.0234375 465.703125 -0.0234375 300.003906 C -0.0234375 134.296875 134.304688 -0.0234375 300.003906 -0.0234375 C 465.703125 -0.0234375 600.019531 134.296875 600.019531 300.003906 " clip-rule="nonzero"/></clipPath><clipPath id="36aa514d12"><path d="M 181 366 L 420 366 L 420 600 L 181 600 Z M 181 366 " clip-rule="nonzero"/></clipPath><clipPath id="bc2258440b"><path d="M 600.019531 300.003906 C 600.019531 465.703125 465.703125 600.019531 300.003906 600.019531 C 134.304688 600.019531 -0.0234375 465.703125 -0.0234375 300.003906 C -0.0234375 134.296875 134.304688 -0.0234375 300.003906 -0.0234375 C 465.703125 -0.0234375 600.019531 134.296875 600.019531 300.003906 " clip-rule="nonzero"/></clipPath><clipPath id="62381225b4"><path d="M 259 314.660156 L 343 314.660156 L 343 391 L 259 391 Z M 259 314.660156 " clip-rule="nonzero"/></clipPath><clipPath id="f075c36e5e"><path d="M 600.019531 300.003906 C 600.019531 465.703125 465.703125 600.019531 300.003906 600.019531 C 134.304688 600.019531 -0.0234375 465.703125 -0.0234375 300.003906 C -0.0234375 134.296875 134.304688 -0.0234375 300.003906 -0.0234375 C 465.703125 -0.0234375 600.019531 134.296875 600.019531 300.003906 " clip-rule="nonzero"/></clipPath><clipPath id="e1f79abf53"><path d="M 334 331 L 338 331 L 338 356 L 334 356 Z M 334 331 " clip-rule="nonzero"/></clipPath><clipPath id="46daf37e82"><path d="M 600.019531 300.003906 C 600.019531 465.703125 465.703125 600.019531 300.003906 600.019531 C 134.304688 600.019531 -0.0234375 465.703125 -0.0234375 300.003906 C -0.0234375 134.296875 134.304688 -0.0234375 300.003906 -0.0234375 C 465.703125 -0.0234375 600.019531 134.296875 600.019531 300.003906 " clip-rule="nonzero"/></clipPath><clipPath id="d3cfe793eb"><path d="M 267 331 L 338 331 L 338 356.542969 L 267 356.542969 Z M 267 331 " clip-rule="nonzero"/></clipPath><clipPath id="773a6248bd"><path d="M 600.019531 300.003906 C 600.019531 465.703125 465.703125 600.019531 300.003906 600.019531 C 134.304688 600.019531 -0.0234375 465.703125 -0.0234375 300.003906 C -0.0234375 134.296875 134.304688 -0.0234375 300.003906 -0.0234375 C 465.703125 -0.0234375 600.019531 134.296875 600.019531 300.003906 " clip-rule="nonzero"/></clipPath><clipPath id="086aee523a"><path d="M 372 208.203125 L 403.664062 208.203125 L 403.664062 260 L 372 260 Z M 372 208.203125 " clip-rule="nonzero"/></clipPath><clipPath id="3a869ceb3f"><path d="M 600.019531 300.003906 C 600.019531 465.703125 465.703125 600.019531 300.003906 600.019531 C 134.304688 600.019531 -0.0234375 465.703125 -0.0234375 300.003906 C -0.0234375 134.296875 134.304688 -0.0234375 300.003906 -0.0234375 C 465.703125 -0.0234375 600.019531 134.296875 600.019531 300.003906 " clip-rule="nonzero"/></clipPath><clipPath id="b375a245b1"><path d="M 382 218.671875 L 398 218.671875 L 398 253 L 382 253 Z M 382 218.671875 " clip-rule="nonzero"/></clipPath><clipPath id="2eaadb3013"><path d="M 600.019531 300.003906 C 600.019531 465.703125 465.703125 600.019531 300.003906 600.019531 C 134.304688 600.019531 -0.0234375 465.703125 -0.0234375 300.003906 C -0.0234375 134.296875 134.304688 -0.0234375 300.003906 -0.0234375 C 465.703125 -0.0234375 600.019531 134.296875 600.019531 300.003906 " clip-rule="nonzero"/></clipPath><clipPath id="43bbe0ce01"><path d="M 380 218 L 398 218 L 398 253 L 380 253 Z M 380 218 " clip-rule="nonzero"/></clipPath><clipPath id="672cda8ac0"><path d="M 600.019531 300.003906 C 600.019531 465.703125 465.703125 600.019531 300.003906 600.019531 C 134.304688 600.019531 -0.0234375 465.703125 -0.0234375 300.003906 C -0.0234375 134.296875 134.304688 -0.0234375 300.003906 -0.0234375 C 465.703125 -0.0234375 600.019531 134.296875 600.019531 300.003906 " clip-rule="nonzero"/></clipPath><clipPath id="0f4f4d8367"><path d="M 383 221 L 394 221 L 394 236.125 L 383 236.125 Z M 383 221 " clip-rule="nonzero"/></clipPath><clipPath id="6a44c24c95"><path d="M 600.019531 300.003906 C 600.019531 465.703125 465.703125 600.019531 300.003906 600.019531 C 134.304688 600.019531 -0.0234375 465.703125 -0.0234375 300.003906 C -0.0234375 134.296875 134.304688 -0.0234375 300.003906 -0.0234375 C 465.703125 -0.0234375 600.019531 134.296875 600.019531 300.003906 " clip-rule="nonzero"/></clipPath><clipPath id="36dd382a76"><path d="M 199 208.203125 L 230.890625 208.203125 L 230.890625 260 L 199 260 Z M 199 208.203125 " clip-rule="nonzero"/></clipPath><clipPath id="dee7f57c47"><path d="M 600.019531 300.003906 C 600.019531 465.703125 465.703125 600.019531 300.003906 600.019531 C 134.304688 600.019531 -0.0234375 465.703125 -0.0234375 300.003906 C -0.0234375 134.296875 134.304688 -0.0234375 300.003906 -0.0234375 C 465.703125 -0.0234375 600.019531 134.296875 600.019531 300.003906 " clip-rule="nonzero"/></clipPath><clipPath id="530c8b5d43"><path d="M 205 219 L 220 219 L 220 251.832031 L 205 251.832031 Z M 205 219 " clip-rule="nonzero"/></clipPath><clipPath id="df318d8acd"><path d="M 600.019531 300.003906 C 600.019531 465.703125 465.703125 600.019531 300.003906 600.019531 C 134.304688 600.019531 -0.0234375 465.703125 -0.0234375 300.003906 C -0.0234375 134.296875 134.304688 -0.0234375 300.003906 -0.0234375 C 465.703125 -0.0234375 600.019531 134.296875 600.019531 300.003906 " clip-rule="nonzero"/></clipPath><clipPath id="f3db43aeba"><path d="M 205 218 L 223 218 L 223 253 L 205 253 Z M 205 218 " clip-rule="nonzero"/></clipPath><clipPath id="bcd9154680"><path d="M 600.019531 300.003906 C 600.019531 465.703125 465.703125 600.019531 300.003906 600.019531 C 134.304688 600.019531 -0.0234375 465.703125 -0.0234375 300.003906 C -0.0234375 134.296875 134.304688 -0.0234375 300.003906 -0.0234375 C 465.703125 -0.0234375 600.019531 134.296875 600.019531 300.003906 " clip-rule="nonzero"/></clipPath><clipPath id="acf67ef653"><path d="M 208.203125 221 L 220 221 L 220 236.125 L 208.203125 236.125 Z M 208.203125 221 " clip-rule="nonzero"/></clipPath><clipPath id="a7e3c58600"><path d="M 600.019531 300.003906 C 600.019531 465.703125 465.703125 600.019531 300.003906 600.019531 C 134.304688 600.019531 -0.0234375 465.703125 -0.0234375 300.003906 C -0.0234375 134.296875 134.304688 -0.0234375 300.003906 -0.0234375 C 465.703125 -0.0234375 600.019531 134.296875 600.019531 300.003906 " clip-rule="nonzero"/></clipPath><clipPath id="0c1eb5b3b5"><path d="M 219 128 L 383 128 L 383 345 L 219 345 Z M 219 128 " clip-rule="nonzero"/></clipPath><clipPath id="10ef69155d"><path d="M 600.019531 300.003906 C 600.019531 465.703125 465.703125 600.019531 300.003906 600.019531 C 134.304688 600.019531 -0.0234375 465.703125 -0.0234375 300.003906 C -0.0234375 134.296875 134.304688 -0.0234375 300.003906 -0.0234375 C 465.703125 -0.0234375 600.019531 134.296875 600.019531 300.003906 " clip-rule="nonzero"/></clipPath><clipPath id="dbc00d28f5"><path d="M 239 150 L 370.507812 150 L 370.507812 181 L 239 181 Z M 239 150 " clip-rule="nonzero"/></clipPath><clipPath id="23b6d076e2"><path d="M 600.019531 300.003906 C 600.019531 465.703125 465.703125 600.019531 300.003906 600.019531 C 134.304688 600.019531 -0.0234375 465.703125 -0.0234375 300.003906 C -0.0234375 134.296875 134.304688 -0.0234375 300.003906 -0.0234375 C 465.703125 -0.0234375 600.019531 134.296875 600.019531 300.003906 " clip-rule="nonzero"/></clipPath><clipPath id="4534870af5"><path d="M 301 344.328125 L 303 344.328125 L 303 345 L 301 345 Z M 301 344.328125 " clip-rule="nonzero"/></clipPath><clipPath id="1e14dc9742"><path d="M 600.019531 300.003906 C 600.019531 465.703125 465.703125 600.019531 300.003906 600.019531 C 134.304688 600.019531 -0.0234375 465.703125 -0.0234375 300.003906 C -0.0234375 134.296875 134.304688 -0.0234375 300.003906 -0.0234375 C 465.703125 -0.0234375 600.019531 134.296875 600.019531 300.003906 " clip-rule="nonzero"/></clipPath><clipPath id="e89ed3a87c"><path d="M 219 161.082031 L 360 161.082031 L 360 345 L 219 345 Z M 219 161.082031 " clip-rule="nonzero"/></clipPath><clipPath id="24c44b8d61"><path d="M 600.019531 300.003906 C 600.019531 465.703125 465.703125 600.019531 300.003906 600.019531 C 134.304688 600.019531 -0.0234375 465.703125 -0.0234375 300.003906 C -0.0234375 134.296875 134.304688 -0.0234375 300.003906 -0.0234375 C 465.703125 -0.0234375 600.019531 134.296875 600.019531 300.003906 " clip-rule="nonzero"/></clipPath><clipPath id="2eb5752bb3"><path d="M 238 150 L 246 150 L 246 162 L 238 162 Z M 238 150 " clip-rule="nonzero"/></clipPath><clipPath id="324d6de558"><path d="M 600.019531 300.003906 C 600.019531 465.703125 465.703125 600.019531 300.003906 600.019531 C 134.304688 600.019531 -0.0234375 465.703125 -0.0234375 300.003906 C -0.0234375 134.296875 134.304688 -0.0234375 300.003906 -0.0234375 C 465.703125 -0.0234375 600.019531 134.296875 600.019531 300.003906 " clip-rule="nonzero"/></clipPath><clipPath id="f18e72a65a"><path d="M 239 191 L 284.992188 191 L 284.992188 204 L 239 204 Z M 239 191 " clip-rule="nonzero"/></clipPath><clipPath id="d8b32554de"><path d="M 600.019531 300.003906 C 600.019531 465.703125 465.703125 600.019531 300.003906 600.019531 C 134.304688 600.019531 -0.0234375 465.703125 -0.0234375 300.003906 C -0.0234375 134.296875 134.304688 -0.0234375 300.003906 -0.0234375 C 465.703125 -0.0234375 600.019531 134.296875 600.019531 300.003906 " clip-rule="nonzero"/></clipPath><clipPath id="82d81fdac4"><path d="M 315 191 L 361 191 L 361 204 L 315 204 Z M 315 191 " clip-rule="nonzero"/></clipPath><clipPath id="1e269fc8e1"><path d="M 600.019531 300.003906 C 600.019531 465.703125 465.703125 600.019531 300.003906 600.019531 C 134.304688 600.019531 -0.0234375 465.703125 -0.0234375 300.003906 C -0.0234375 134.296875 134.304688 -0.0234375 300.003906 -0.0234375 C 465.703125 -0.0234375 600.019531 134.296875 600.019531 300.003906 " clip-rule="nonzero"/></clipPath><clipPath id="34ab4b15cf"><path d="M 286 255.324219 L 316 255.324219 L 316 269 L 286 269 Z M 286 255.324219 " clip-rule="nonzero"/></clipPath><clipPath id="d454c62dde"><path d="M 600.019531 300.003906 C 600.019531 465.703125 465.703125 600.019531 300.003906 600.019531 C 134.304688 600.019531 -0.0234375 465.703125 -0.0234375 300.003906 C -0.0234375 134.296875 134.304688 -0.0234375 300.003906 -0.0234375 C 465.703125 -0.0234375 600.019531 134.296875 600.019531 300.003906 " clip-rule="nonzero"/></clipPath><clipPath id="7c5b9a0008"><path d="M 268 282 L 335 282 L 335 304 L 268 304 Z M 268 282 " clip-rule="nonzero"/></clipPath><clipPath id="79e47a0239"><path d="M 600.019531 300.003906 C 600.019531 465.703125 465.703125 600.019531 300.003906 600.019531 C 134.304688 600.019531 -0.0234375 465.703125 -0.0234375 300.003906 C -0.0234375 134.296875 134.304688 -0.0234375 300.003906 -0.0234375 C 465.703125 -0.0234375 600.019531 134.296875 600.019531 300.003906 " clip-rule="nonzero"/></clipPath><clipPath id="3f29d414fb"><path d="M 268 282 L 335 282 L 335 295 L 268 295 Z M 268 282 " clip-rule="nonzero"/></clipPath><clipPath id="0529ace013"><path d="M 600.019531 300.003906 C 600.019531 465.703125 465.703125 600.019531 300.003906 600.019531 C 134.304688 600.019531 -0.0234375 465.703125 -0.0234375 300.003906 C -0.0234375 134.296875 134.304688 -0.0234375 300.003906 -0.0234375 C 465.703125 -0.0234375 600.019531 134.296875 600.019531 300.003906 " clip-rule="nonzero"/></clipPath><clipPath id="7c3adc252d"><path d="M 291 311.167969 L 311.167969 311.167969 L 311.167969 318.148438 L 291 318.148438 Z M 291 311.167969 " clip-rule="nonzero"/></clipPath><clipPath id="32cf3048ca"><path d="M 600.019531 300.003906 C 600.019531 465.703125 465.703125 600.019531 300.003906 600.019531 C 134.304688 600.019531 -0.0234375 465.703125 -0.0234375 300.003906 C -0.0234375 134.296875 134.304688 -0.0234375 300.003906 -0.0234375 C 465.703125 -0.0234375 600.019531 134.296875 600.019531 300.003906 " clip-rule="nonzero"/></clipPath><clipPath id="a34fcbc44d"><path d="M 286.738281 260.558594 L 316 260.558594 L 316 274 L 286.738281 274 Z M 286.738281 260.558594 " clip-rule="nonzero"/></clipPath><clipPath id="18b7f6fd33"><path d="M 600.019531 300.003906 C 600.019531 465.703125 465.703125 600.019531 300.003906 600.019531 C 134.304688 600.019531 -0.0234375 465.703125 -0.0234375 300.003906 C -0.0234375 134.296875 134.304688 -0.0234375 300.003906 -0.0234375 C 465.703125 -0.0234375 600.019531 134.296875 600.019531 300.003906 " clip-rule="nonzero"/></clipPath><clipPath id="a8376719c8"><path d="M 268 282 L 278 282 L 278 293 L 268 293 Z M 268 282 " clip-rule="nonzero"/></clipPath><clipPath id="11e7af6acf"><path d="M 600.019531 300.003906 C 600.019531 465.703125 465.703125 600.019531 300.003906 600.019531 C 134.304688 600.019531 -0.0234375 465.703125 -0.0234375 300.003906 C -0.0234375 134.296875 134.304688 -0.0234375 300.003906 -0.0234375 C 465.703125 -0.0234375 600.019531 134.296875 600.019531 300.003906 " clip-rule="nonzero"/></clipPath><clipPath id="f1bfad95f2"><path d="M 325.132812 282 L 335 282 L 335 293 L 325.132812 293 Z M 325.132812 282 " clip-rule="nonzero"/></clipPath><clipPath id="7bf11ed917"><path d="M 600.019531 300.003906 C 600.019531 465.703125 465.703125 600.019531 300.003906 600.019531 C 134.304688 600.019531 -0.0234375 465.703125 -0.0234375 300.003906 C -0.0234375 134.296875 134.304688 -0.0234375 300.003906 -0.0234375 C 465.703125 -0.0234375 600.019531 134.296875 600.019531 300.003906 " clip-rule="nonzero"/></clipPath><clipPath id="0a8fd2e324"><path d="M 209 68.585938 L 405.410156 68.585938 L 405.410156 219 L 209 219 Z M 209 68.585938 " clip-rule="nonzero"/></clipPath><clipPath id="1a4280125f"><path d="M 600.019531 300.003906 C 600.019531 465.703125 465.703125 600.019531 300.003906 600.019531 C 134.304688 600.019531 -0.0234375 465.703125 -0.0234375 300.003906 C -0.0234375 134.296875 134.304688 -0.0234375 300.003906 -0.0234375 C 465.703125 -0.0234375 600.019531 134.296875 600.019531 300.003906 " clip-rule="nonzero"/></clipPath><clipPath id="41a4e1b66a"><path d="M 213 114 L 364 114 L 364 150 L 213 150 Z M 213 114 " clip-rule="nonzero"/></clipPath><clipPath id="974318de6e"><path d="M 600.019531 300.003906 C 600.019531 465.703125 465.703125 600.019531 300.003906 600.019531 C 134.304688 600.019531 -0.0234375 465.703125 -0.0234375 300.003906 C -0.0234375 134.296875 134.304688 -0.0234375 300.003906 -0.0234375 C 465.703125 -0.0234375 600.019531 134.296875 600.019531 300.003906 " clip-rule="nonzero"/></clipPath><clipPath id="08f943d5f6"><path d="M 199 558 L 396 558 L 396 600 L 199 600 Z M 199 558 " clip-rule="nonzero"/></clipPath><clipPath id="5f2e89f2f1"><path d="M 600.019531 300.003906 C 600.019531 465.703125 465.703125 600.019531 300.003906 600.019531 C 134.304688 600.019531 -0.0234375 465.703125 -0.0234375 300.003906 C -0.0234375 134.296875 134.304688 -0.0234375 300.003906 -0.0234375 C 465.703125 -0.0234375 600.019531 134.296875 600.019531 300.003906 " clip-rule="nonzero"/></clipPath><clipPath id="dc8eb53e70"><path d="M 265 223 L 279.753906 223 L 279.753906 250 L 265 250 Z M 265 223 " clip-rule="nonzero"/></clipPath><clipPath id="068b506075"><path d="M 600.019531 300.003906 C 600.019531 465.703125 465.703125 600.019531 300.003906 600.019531 C 134.304688 600.019531 -0.0234375 465.703125 -0.0234375 300.003906 C -0.0234375 134.296875 134.304688 -0.0234375 300.003906 -0.0234375 C 465.703125 -0.0234375 600.019531 134.296875 600.019531 300.003906 " clip-rule="nonzero"/></clipPath><clipPath id="cc0c22ab87"><path d="M 322 223 L 337.347656 223 L 337.347656 250 L 322 250 Z M 322 223 " clip-rule="nonzero"/></clipPath><clipPath id="99de020e31"><path d="M 600.019531 300.003906 C 600.019531 465.703125 465.703125 600.019531 300.003906 600.019531 C 134.304688 600.019531 -0.0234375 465.703125 -0.0234375 300.003906 C -0.0234375 134.296875 134.304688 -0.0234375 300.003906 -0.0234375 C 465.703125 -0.0234375 600.019531 134.296875 600.019531 300.003906 " clip-rule="nonzero"/></clipPath></defs><g clip-path="url(#c91928a9dd)"><path fill="#82d7f6" d="M 600.019531 300.003906 C 600.019531 465.703125 465.703125 600.019531 300.003906 600.019531 C 134.304688 600.019531 -0.0234375 465.703125 -0.0234375 300.003906 C -0.0234375 134.296875 134.304688 -0.0234375 300.003906 -0.0234375 C 465.703125 -0.0234375 600.019531 134.296875 600.019531 300.003906 " fill-opacity="1" fill-rule="nonzero"/></g><g clip-path="url(#aad0625295)"><g clip-path="url(#0dcacf3015)"><path fill="#f0a176" d="M 448.660156 627.691406 C 453.144531 552.738281 457.835938 469.59375 457.835938 469.59375 L 414.613281 506.285156 C 415.390625 519.359375 417.089844 574.167969 418.648438 627.691406 L 448.660156 627.691406 " fill-opacity="1" fill-rule="nonzero"/></g></g><g clip-path="url(#d6afe8412c)"><g clip-path="url(#addf3d290d)"><path fill="#b7977b" d="M 414.613281 506.285156 L 420.621094 501.183594 L 414.613281 506.285156 " fill-opacity="1" fill-rule="nonzero"/></g></g><g clip-path="url(#e3d47ef92a)"><g clip-path="url(#9b849e8c14)"><path fill="#d6855a" d="M 417.109375 576.304688 C 416.070312 542.804688 415.132812 515.085938 414.613281 506.285156 L 420.621094 501.183594 L 456.6875 489.800781 C 455.808594 505.21875 454.492188 528.195312 452.988281 554.140625 C 445.726562 558.441406 437.628906 562.019531 430.039062 562.675781 L 429.835938 570.550781 C 425.644531 572.566406 421.410156 574.484375 417.109375 576.304688 " fill-opacity="1" fill-rule="nonzero"/></g></g><g clip-path="url(#3531baca32)"><g clip-path="url(#59c99af1b1)"><path fill="#3583b0" d="M 414.777344 394.046875 C 414.777344 394.046875 439.03125 402.152344 448.925781 422.507812 C 458.808594 442.871094 473.355469 517.335938 473.355469 517.335938 C 473.355469 517.335938 457.0625 550.492188 407.617188 538.855469 C 407.617188 538.855469 372.488281 395.839844 414.777344 394.046875 " fill-opacity="1" fill-rule="nonzero"/></g></g><g clip-path="url(#98f717c194)"><g clip-path="url(#63e0b85547)"><path fill="#337393" d="M 395.550781 418.929688 C 388.339844 460.335938 407.617188 538.855469 407.617188 538.855469 C 412.5 540 417.046875 540.699219 421.300781 541.050781 C 427.066406 514.117188 442.441406 425.242188 395.550781 418.929688 " fill-opacity="1" fill-rule="nonzero"/></g></g><g clip-path="url(#c05e407949)"><g clip-path="url(#9345e47da2)"><path fill="#f0a176" d="M 182.671875 627.691406 C 184.234375 574.167969 185.929688 519.359375 186.714844 506.285156 L 143.488281 469.59375 C 143.488281 469.59375 148.175781 552.738281 152.65625 627.691406 L 182.671875 627.691406 " fill-opacity="1" fill-rule="nonzero"/></g></g><g clip-path="url(#42f6219fed)"><g clip-path="url(#21f5f05e7a)"><path fill="#b7977b" d="M 148 548.414062 C 146.628906 524.820312 145.445312 504.074219 144.632812 489.800781 C 145.445312 504.082031 146.628906 524.820312 148 548.414062 " fill-opacity="1" fill-rule="nonzero"/></g></g><g clip-path="url(#55873e9583)"><g clip-path="url(#28398174cf)"><path fill="#d6855a" d="M 184.191406 576.855469 C 179.910156 575.0625 175.675781 573.175781 171.5 571.183594 L 171.273438 562.675781 C 163.691406 562.019531 155.59375 558.441406 148.328125 554.140625 C 148.21875 552.210938 148.109375 550.300781 148 548.414062 C 146.628906 524.820312 145.445312 504.082031 144.632812 489.800781 L 180.703125 501.183594 L 186.714844 506.285156 C 186.183594 515.132812 185.234375 543.105469 184.191406 576.855469 " fill-opacity="1" fill-rule="nonzero"/></g></g><g clip-path="url(#52f96d6ea9)"><g clip-path="url(#ddf8e36d9d)"><path fill="#3583b0" d="M 185.226562 394.046875 C 185.226562 394.046875 160.972656 402.152344 151.082031 422.507812 C 141.191406 442.871094 126.648438 517.335938 126.648438 517.335938 C 126.648438 517.335938 142.933594 550.492188 192.386719 538.855469 C 192.386719 538.855469 227.507812 395.839844 185.226562 394.046875 " fill-opacity="1" fill-rule="nonzero"/></g></g><g clip-path="url(#1df7d61258)"><g clip-path="url(#28cbad0019)"><path fill="#337393" d="M 192.386719 538.855469 C 192.386719 538.855469 218.074219 434.226562 199.046875 402.839844 C 197.214844 402.960938 195.296875 403.289062 193.257812 403.898438 C 142.265625 418.894531 170.300781 514.445312 179.195312 541.023438 C 183.304688 540.65625 187.691406 539.960938 192.386719 538.855469 " fill-opacity="1" fill-rule="nonzero"/></g></g><g clip-path="url(#36aa514d12)"><g clip-path="url(#bc2258440b)"><path fill="#3583b0" d="M 392.527344 627.691406 C 404.347656 541.578125 421.984375 407.699219 419.25 395.171875 C 419.25 395.171875 348.785156 371.898438 336.570312 366.082031 L 300.542969 371.753906 L 264.519531 366.082031 C 252.304688 371.898438 181.839844 395.171875 181.839844 395.171875 C 179.09375 407.699219 196.742188 541.578125 208.558594 627.691406 L 392.527344 627.691406 " fill-opacity="1" fill-rule="nonzero"/></g></g><g clip-path="url(#62381225b4)"><g clip-path="url(#f075c36e5e)"><path fill="#da8b65" d="M 332.847656 314.890625 L 301.304688 324.054688 L 269.753906 314.890625 C 269.753906 314.890625 267.273438 358.523438 259.855469 368.554688 C 259.855469 368.554688 280.796875 389.5 301.304688 390.371094 C 321.8125 389.5 342.753906 368.554688 342.753906 368.554688 C 335.335938 358.523438 332.847656 314.890625 332.847656 314.890625 " fill-opacity="1" fill-rule="nonzero"/></g></g><g clip-path="url(#e1f79abf53)"><g clip-path="url(#46daf37e82)"><path fill="#908475" d="M 337.921875 355.257812 C 336.242188 347.8125 335.050781 338.867188 334.238281 331.292969 L 334.246094 331.285156 C 335.050781 338.867188 336.25 347.8125 337.921875 355.257812 " fill-opacity="1" fill-rule="nonzero"/></g></g><g clip-path="url(#d3cfe793eb)"><g clip-path="url(#773a6248bd)"><path fill="#b06749" d="M 323.554688 356.011719 C 292.140625 356.011719 273.796875 344.683594 267.347656 339.789062 C 267.742188 336.835938 268.085938 333.925781 268.378906 331.199219 C 280.371094 339.550781 292.386719 344.65625 301.304688 344.65625 C 301.3125 344.65625 301.324219 344.65625 301.339844 344.65625 C 301.347656 344.65625 301.347656 344.65625 301.351562 344.65625 C 301.367188 344.65625 301.371094 344.65625 301.386719 344.65625 C 301.386719 344.65625 301.394531 344.65625 301.394531 344.65625 C 301.40625 344.65625 301.421875 344.65625 301.433594 344.65625 C 301.441406 344.65625 301.441406 344.65625 301.441406 344.65625 C 301.453125 344.65625 301.460938 344.65625 301.476562 344.65625 C 301.480469 344.65625 301.480469 344.65625 301.488281 344.65625 C 301.503906 344.65625 301.507812 344.65625 301.523438 344.65625 C 301.523438 344.65625 301.53125 344.65625 301.53125 344.65625 C 301.542969 344.65625 301.558594 344.65625 301.570312 344.65625 C 301.578125 344.65625 301.578125 344.65625 301.578125 344.65625 C 301.589844 344.65625 301.605469 344.65625 301.613281 344.65625 C 301.617188 344.65625 301.617188 344.65625 301.625 344.65625 C 301.640625 344.65625 301.652344 344.65625 301.667969 344.65625 C 301.679688 344.65625 301.695312 344.65625 301.707031 344.65625 C 301.707031 344.65625 301.714844 344.65625 301.71875 344.65625 C 301.726562 344.65625 301.742188 344.65625 301.746094 344.65625 C 301.753906 344.65625 301.753906 344.65625 301.761719 344.65625 C 301.773438 344.65625 301.789062 344.65625 301.800781 344.65625 C 301.800781 344.65625 301.800781 344.65625 301.808594 344.65625 C 301.816406 344.65625 301.828125 344.65625 301.84375 344.65625 C 301.84375 344.65625 301.851562 344.65625 301.851562 344.65625 C 301.882812 344.648438 301.90625 344.648438 301.9375 344.648438 C 301.9375 344.648438 301.945312 344.648438 301.945312 344.648438 C 301.960938 344.648438 301.964844 344.648438 301.980469 344.648438 C 301.980469 344.648438 301.988281 344.648438 301.988281 344.648438 C 302 344.648438 302.019531 344.648438 302.035156 344.648438 C 302.046875 344.648438 302.0625 344.648438 302.074219 344.648438 C 302.074219 344.648438 302.074219 344.648438 302.082031 344.648438 C 302.09375 344.648438 302.109375 344.648438 302.121094 344.640625 C 302.136719 344.640625 302.15625 344.640625 302.171875 344.640625 C 302.183594 344.640625 302.199219 344.640625 302.210938 344.640625 C 302.210938 344.640625 302.21875 344.640625 302.21875 344.640625 C 302.253906 344.640625 302.28125 344.640625 302.308594 344.636719 L 302.3125 344.636719 C 302.355469 344.636719 302.402344 344.636719 302.449219 344.636719 C 302.484375 344.628906 302.511719 344.628906 302.539062 344.628906 L 302.546875 344.628906 C 302.558594 344.628906 302.574219 344.628906 302.585938 344.628906 C 302.585938 344.628906 302.585938 344.628906 302.59375 344.628906 C 302.621094 344.621094 302.648438 344.621094 302.683594 344.621094 C 311.40625 344.136719 322.832031 339.160156 334.238281 331.292969 C 335.050781 338.867188 336.242188 347.8125 337.921875 355.257812 C 332.855469 355.78125 328.070312 356.011719 323.554688 356.011719 " fill-opacity="1" fill-rule="nonzero"/></g></g><g clip-path="url(#086aee523a)"><g clip-path="url(#3a869ceb3f)"><path fill="#d17a50" d="M 372.164062 233.113281 C 371.105469 247.292969 377.269531 259.316406 385.933594 259.964844 C 394.597656 260.605469 402.472656 249.636719 403.535156 235.449219 C 404.59375 221.269531 398.421875 209.253906 389.765625 208.597656 C 381.101562 207.949219 373.226562 218.925781 372.164062 233.113281 " fill-opacity="1" fill-rule="nonzero"/></g></g><g clip-path="url(#b375a245b1)"><g clip-path="url(#2eaadb3013)"><path fill="#ba6449" d="M 387.683594 252.035156 C 385.789062 252.035156 383.984375 250.195312 383.105469 244.203125 C 383.105469 244.203125 393.710938 241.246094 384.480469 237.121094 L 382.804688 236.480469 C 382.8125 235.070312 382.8125 233.679688 382.8125 232.300781 C 382.8125 229.511719 382.777344 226.675781 382.695312 223.800781 C 383.777344 221 385.730469 218.832031 389.183594 218.832031 C 389.300781 218.832031 389.417969 218.832031 389.53125 218.835938 C 398.171875 219.191406 397.496094 229.582031 397.597656 229.582031 C 397.617188 229.582031 397.660156 229.265625 397.78125 228.519531 C 397.78125 228.519531 397.71875 232.527344 395.539062 233.03125 C 395.539062 233.03125 396.949219 224.816406 389.53125 223.070312 C 389.53125 223.070312 394.507812 225.90625 393.65625 238.015625 C 393.65625 238.015625 393.460938 232.234375 386.261719 230.542969 C 386.261719 230.542969 397.074219 239.648438 387.847656 245.648438 C 387.847656 245.648438 388.027344 248.988281 390.386719 248.988281 C 391.242188 248.988281 392.390625 248.546875 393.929688 247.339844 C 393.929688 247.339844 390.699219 252.035156 387.683594 252.035156 " fill-opacity="1" fill-rule="nonzero"/></g></g><g clip-path="url(#43bbe0ce01)"><g clip-path="url(#672cda8ac0)"><path fill="#9a4f36" d="M 397.808594 230.84375 C 397.84375 229.265625 397.609375 227.691406 397.15625 226.214844 C 396.929688 225.46875 396.621094 224.753906 396.234375 224.09375 C 395.867188 223.425781 395.421875 222.792969 394.890625 222.253906 C 394.652344 221.960938 394.378906 221.699219 394.074219 221.476562 C 393.785156 221.238281 393.507812 220.976562 393.167969 220.808594 C 392.546875 220.378906 391.84375 220.089844 391.140625 219.804688 C 390.417969 219.609375 389.683594 219.355469 388.953125 219.28125 C 388.195312 219.191406 387.542969 219.226562 386.867188 219.457031 C 385.550781 219.894531 384.554688 221.011719 383.894531 222.328125 C 383.207031 223.644531 382.8125 225.136719 382.519531 226.636719 C 382.238281 228.148438 382.089844 229.691406 382.007812 231.238281 C 381.972656 232.015625 381.953125 232.792969 381.960938 233.570312 L 381.984375 235.929688 L 381.460938 235.234375 C 382.734375 235.621094 383.941406 236.085938 385.144531 236.664062 C 385.742188 236.949219 386.328125 237.269531 386.894531 237.660156 C 387.460938 238.054688 388.019531 238.5 388.457031 239.171875 C 388.679688 239.5 388.824219 239.9375 388.871094 240.386719 C 388.871094 240.84375 388.769531 241.320312 388.539062 241.660156 C 388.109375 242.371094 387.507812 242.792969 386.933594 243.179688 C 385.761719 243.890625 384.527344 244.367188 383.289062 244.757812 L 383.683594 244.128906 C 383.875 245.636719 384.230469 247.191406 384.816406 248.59375 C 385.117188 249.296875 385.484375 249.964844 385.960938 250.511719 C 386.214844 250.777344 386.472656 251.019531 386.777344 251.183594 C 387.070312 251.367188 387.414062 251.449219 387.753906 251.5 C 388.09375 251.53125 388.449219 251.492188 388.804688 251.410156 C 389.15625 251.292969 389.503906 251.15625 389.839844 250.972656 C 390.507812 250.605469 391.136719 250.128906 391.707031 249.597656 C 392.867188 248.527344 393.882812 247.292969 394.871094 246.039062 C 394.027344 247.386719 393.105469 248.710938 391.992188 249.882812 C 391.441406 250.476562 390.828125 251.019531 390.132812 251.476562 C 389.792969 251.710938 389.402344 251.886719 389.007812 252.042969 C 388.59375 252.171875 388.15625 252.277344 387.699219 252.25 C 387.257812 252.214844 386.792969 252.113281 386.398438 251.886719 C 385.988281 251.6875 385.652344 251.402344 385.339844 251.097656 C 384.734375 250.46875 384.296875 249.738281 383.941406 248.988281 C 383.234375 247.484375 382.804688 245.914062 382.519531 244.277344 L 382.4375 243.824219 L 382.914062 243.644531 C 384.078125 243.203125 385.246094 242.730469 386.246094 242.105469 C 386.730469 241.777344 387.179688 241.402344 387.40625 241.011719 C 387.542969 240.816406 387.542969 240.636719 387.554688 240.460938 C 387.515625 240.285156 387.480469 240.085938 387.332031 239.890625 C 386.773438 239.070312 385.625 238.429688 384.542969 237.910156 C 383.429688 237.402344 382.238281 236.964844 381.066406 236.625 L 380.5625 236.480469 L 380.539062 235.929688 C 380.507812 235.191406 380.480469 234.347656 380.5 233.554688 C 380.507812 232.757812 380.535156 231.960938 380.582031 231.15625 C 380.691406 229.5625 380.867188 227.957031 381.1875 226.378906 C 381.523438 224.796875 381.960938 223.214844 382.757812 221.726562 C 383.152344 221 383.621094 220.269531 384.257812 219.667969 C 384.875 219.0625 385.675781 218.59375 386.527344 218.347656 C 387.351562 218.082031 388.320312 218.09375 389.109375 218.230469 C 389.949219 218.359375 390.707031 218.660156 391.484375 218.917969 C 392.234375 219.261719 392.980469 219.601562 393.644531 220.097656 C 394 220.308594 394.296875 220.601562 394.605469 220.875 C 394.917969 221.140625 395.199219 221.433594 395.449219 221.761719 C 395.714844 222.074219 395.96875 222.402344 396.167969 222.757812 C 396.382812 223.105469 396.59375 223.453125 396.746094 223.828125 C 397.101562 224.558594 397.367188 225.328125 397.535156 226.105469 C 397.917969 227.660156 398.007812 229.273438 397.808594 230.84375 " fill-opacity="1" fill-rule="nonzero"/></g></g><g clip-path="url(#0f4f4d8367)"><g clip-path="url(#6a44c24c95)"><path fill="#9a4f36" d="M 393.894531 236.050781 C 393.894531 236.050781 393.945312 234.777344 393.683594 232.902344 C 393.5625 231.960938 393.351562 230.875 392.996094 229.765625 C 392.820312 229.207031 392.628906 228.640625 392.355469 228.089844 C 392.136719 227.515625 391.78125 227.011719 391.484375 226.492188 C 391.121094 226.007812 390.761719 225.519531 390.332031 225.121094 C 389.878906 224.746094 389.476562 224.339844 388.96875 224.113281 C 388.726562 223.976562 388.496094 223.855469 388.273438 223.726562 C 388.019531 223.644531 387.773438 223.570312 387.535156 223.5 C 387.296875 223.425781 387.066406 223.351562 386.839844 223.28125 C 386.609375 223.261719 386.375 223.234375 386.160156 223.222656 C 385.722656 223.195312 385.332031 223.097656 384.964844 223.140625 C 384.605469 223.167969 384.289062 223.195312 384.039062 223.222656 C 383.519531 223.261719 383.226562 223.28125 383.226562 223.28125 L 383.023438 221.550781 C 383.023438 221.550781 383.355469 221.550781 383.957031 221.550781 C 384.25 221.550781 384.609375 221.550781 385.019531 221.550781 C 385.429688 221.542969 385.898438 221.6875 386.402344 221.761719 C 386.65625 221.816406 386.914062 221.863281 387.1875 221.910156 C 387.441406 222.015625 387.710938 222.128906 387.984375 222.230469 C 388.257812 222.347656 388.539062 222.464844 388.824219 222.578125 C 389.082031 222.757812 389.347656 222.925781 389.613281 223.113281 C 390.171875 223.433594 390.609375 223.941406 391.082031 224.40625 C 391.523438 224.898438 391.878906 225.46875 392.226562 226.035156 C 392.503906 226.628906 392.832031 227.207031 393.007812 227.824219 C 393.242188 228.421875 393.390625 229.035156 393.527344 229.621094 C 393.792969 230.800781 393.910156 231.917969 393.957031 232.875 C 394.050781 234.78125 393.894531 236.050781 393.894531 236.050781 " fill-opacity="1" fill-rule="nonzero"/></g></g><g clip-path="url(#36dd382a76)"><g clip-path="url(#dee7f57c47)"><path fill="#d17a50" d="M 230.761719 233.113281 C 231.816406 247.292969 225.65625 259.316406 216.988281 259.964844 C 208.324219 260.605469 200.445312 249.636719 199.386719 235.449219 C 198.332031 221.269531 204.5 209.253906 213.160156 208.597656 C 221.824219 207.949219 229.695312 218.925781 230.761719 233.113281 " fill-opacity="1" fill-rule="nonzero"/></g></g><g clip-path="url(#530c8b5d43)"><g clip-path="url(#df318d8acd)"><path fill="#ba6449" d="M 214.929688 251.511719 C 214.664062 251.511719 214.390625 251.472656 214.121094 251.410156 C 213.765625 251.292969 213.417969 251.15625 213.082031 250.972656 C 212.414062 250.605469 211.789062 250.128906 211.214844 249.589844 C 210.539062 248.96875 209.914062 248.289062 209.3125 247.585938 C 210.691406 248.609375 211.742188 248.988281 212.539062 248.988281 C 214.898438 248.988281 215.074219 245.648438 215.074219 245.648438 C 205.851562 239.648438 216.664062 230.542969 216.664062 230.542969 C 209.464844 232.234375 209.257812 238.015625 209.257812 238.015625 C 209.117188 235.921875 209.144531 234.109375 209.285156 232.53125 C 209.414062 231.6875 209.621094 230.734375 209.925781 229.757812 C 210.105469 229.207031 210.296875 228.632812 210.566406 228.089844 C 210.785156 227.515625 211.140625 227.011719 211.441406 226.492188 C 211.800781 226.003906 212.164062 225.519531 212.59375 225.121094 C 213.042969 224.746094 213.445312 224.339844 213.957031 224.113281 C 214.195312 223.976562 214.417969 223.847656 214.652344 223.726562 C 214.902344 223.644531 215.148438 223.570312 215.386719 223.5 C 215.625 223.425781 215.859375 223.351562 216.082031 223.28125 C 216.316406 223.261719 216.546875 223.234375 216.765625 223.222656 C 217.132812 223.199219 217.460938 223.125 217.765625 223.125 C 217.828125 223.125 217.898438 223.132812 217.957031 223.140625 C 218.320312 223.167969 218.632812 223.195312 218.886719 223.222656 C 219.128906 223.234375 219.320312 223.246094 219.457031 223.261719 C 219.621094 223.664062 219.765625 224.078125 219.886719 224.496094 C 219.824219 227.132812 219.796875 229.746094 219.796875 232.300781 C 219.796875 233.09375 219.796875 233.882812 219.796875 234.679688 C 219.796875 235.054688 219.796875 235.421875 219.796875 235.796875 C 219.117188 236.058594 218.449219 236.335938 217.78125 236.664062 C 217.179688 236.949219 216.59375 237.269531 216.027344 237.660156 C 215.460938 238.054688 214.902344 238.5 214.46875 239.171875 C 214.242188 239.5 214.09375 239.9375 214.050781 240.386719 C 214.042969 240.84375 214.152344 241.320312 214.378906 241.660156 C 214.816406 242.371094 215.410156 242.792969 215.988281 243.179688 C 217.011719 243.800781 218.082031 244.246094 219.164062 244.605469 C 218.964844 245.960938 218.625 247.339844 218.101562 248.59375 C 217.808594 249.296875 217.433594 249.964844 216.957031 250.511719 C 216.710938 250.777344 216.445312 251.019531 216.144531 251.183594 C 215.851562 251.367188 215.511719 251.449219 215.167969 251.5 C 215.09375 251.503906 215.011719 251.511719 214.929688 251.511719 M 207.382812 233.03125 C 205.734375 232.648438 205.296875 230.25 205.183594 229.117188 C 205.1875 229.050781 205.195312 228.980469 205.203125 228.914062 C 205.277344 229.375 205.304688 229.582031 205.320312 229.582031 C 205.351562 229.582031 205.3125 228.621094 205.488281 227.261719 C 205.570312 226.910156 205.667969 226.5625 205.769531 226.214844 C 205.992188 225.46875 206.300781 224.753906 206.6875 224.09375 C 207.058594 223.425781 207.5 222.792969 208.03125 222.253906 C 208.269531 221.960938 208.542969 221.699219 208.851562 221.476562 C 209.136719 221.238281 209.414062 220.976562 209.757812 220.808594 C 210.378906 220.378906 211.078125 220.089844 211.78125 219.804688 C 212.503906 219.609375 213.242188 219.355469 213.96875 219.28125 C 214.222656 219.246094 214.460938 219.234375 214.691406 219.234375 C 215.164062 219.234375 215.605469 219.300781 216.054688 219.457031 C 217.097656 219.804688 217.949219 220.582031 218.585938 221.550781 C 218.378906 221.550781 218.148438 221.550781 217.902344 221.550781 C 217.898438 221.550781 217.890625 221.550781 217.882812 221.550781 C 217.480469 221.550781 217.015625 221.6875 216.519531 221.761719 C 216.265625 221.816406 216.007812 221.863281 215.734375 221.910156 C 215.484375 222.015625 215.210938 222.125 214.929688 222.230469 C 214.664062 222.347656 214.378906 222.464844 214.097656 222.578125 C 213.855469 222.742188 213.609375 222.90625 213.355469 223.078125 C 205.972656 224.835938 207.382812 233.03125 207.382812 233.03125 M 207.875 221.296875 C 208.386719 220.710938 209.007812 220.195312 209.75 219.785156 C 209.585938 219.878906 209.429688 219.988281 209.28125 220.097656 C 208.925781 220.308594 208.625 220.601562 208.316406 220.875 C 208.160156 221.011719 208.011719 221.148438 207.875 221.296875 " fill-opacity="1" fill-rule="nonzero"/></g></g><g clip-path="url(#f3db43aeba)"><g clip-path="url(#bcd9154680)"><path fill="#9a4f36" d="M 205.113281 230.84375 C 204.917969 229.273438 205.003906 227.660156 205.386719 226.105469 C 205.558594 225.320312 205.824219 224.558594 206.179688 223.828125 C 206.328125 223.453125 206.539062 223.105469 206.757812 222.757812 C 206.953125 222.402344 207.207031 222.074219 207.472656 221.761719 C 207.726562 221.433594 208.003906 221.140625 208.316406 220.875 C 208.625 220.601562 208.925781 220.308594 209.28125 220.097656 C 209.941406 219.601562 210.691406 219.261719 211.441406 218.917969 C 212.21875 218.660156 212.972656 218.359375 213.8125 218.230469 C 214.605469 218.09375 215.570312 218.082031 216.398438 218.347656 C 217.25 218.59375 218.046875 219.0625 218.667969 219.667969 C 219.300781 220.269531 219.769531 221 220.167969 221.726562 C 220.964844 223.214844 221.402344 224.796875 221.734375 226.378906 C 222.054688 227.957031 222.230469 229.5625 222.339844 231.15625 C 222.390625 231.960938 222.417969 232.757812 222.421875 233.554688 C 222.445312 234.347656 222.417969 235.191406 222.382812 235.929688 L 222.363281 236.480469 L 221.855469 236.625 C 220.683594 236.964844 219.492188 237.394531 218.378906 237.910156 C 217.296875 238.429688 216.152344 239.070312 215.59375 239.890625 C 215.441406 240.085938 215.402344 240.285156 215.367188 240.460938 C 215.382812 240.636719 215.382812 240.816406 215.515625 241.011719 C 215.734375 241.402344 216.191406 241.777344 216.667969 242.105469 C 217.671875 242.730469 218.84375 243.203125 220.011719 243.644531 L 220.480469 243.824219 L 220.40625 244.277344 C 220.117188 245.914062 219.6875 247.484375 218.980469 248.988281 C 218.617188 249.738281 218.183594 250.46875 217.582031 251.097656 C 217.269531 251.402344 216.929688 251.6875 216.527344 251.886719 C 216.128906 252.113281 215.667969 252.214844 215.222656 252.25 C 214.765625 252.277344 214.332031 252.171875 213.914062 252.042969 C 213.519531 251.886719 213.132812 251.710938 212.789062 251.476562 C 212.09375 251.019531 211.480469 250.476562 210.929688 249.882812 C 209.816406 248.710938 208.898438 247.386719 208.050781 246.039062 C 209.039062 247.292969 210.058594 248.519531 211.214844 249.589844 C 211.789062 250.128906 212.414062 250.605469 213.082031 250.972656 C 213.417969 251.15625 213.765625 251.292969 214.121094 251.410156 C 214.472656 251.492188 214.828125 251.53125 215.167969 251.5 C 215.511719 251.449219 215.851562 251.367188 216.144531 251.183594 C 216.445312 251.019531 216.710938 250.777344 216.957031 250.511719 C 217.433594 249.964844 217.808594 249.296875 218.101562 248.59375 C 218.695312 247.191406 219.046875 245.636719 219.234375 244.128906 L 219.628906 244.757812 C 218.386719 244.367188 217.160156 243.890625 215.988281 243.179688 C 215.410156 242.792969 214.816406 242.371094 214.378906 241.660156 C 214.152344 241.320312 214.042969 240.84375 214.050781 240.386719 C 214.09375 239.9375 214.242188 239.5 214.46875 239.171875 C 214.902344 238.5 215.460938 238.054688 216.027344 237.660156 C 216.59375 237.269531 217.179688 236.949219 217.78125 236.664062 C 218.980469 236.085938 220.1875 235.621094 221.460938 235.234375 L 220.9375 235.929688 L 220.964844 233.570312 C 220.972656 232.792969 220.949219 232.015625 220.917969 231.238281 C 220.835938 229.691406 220.683594 228.148438 220.40625 226.636719 C 220.113281 225.136719 219.714844 223.644531 219.027344 222.328125 C 218.367188 221.011719 217.371094 219.894531 216.054688 219.457031 C 215.382812 219.226562 214.726562 219.191406 213.96875 219.28125 C 213.242188 219.355469 212.503906 219.609375 211.78125 219.804688 C 211.078125 220.089844 210.378906 220.378906 209.757812 220.808594 C 209.414062 220.976562 209.136719 221.238281 208.851562 221.476562 C 208.542969 221.699219 208.269531 221.960938 208.03125 222.253906 C 207.5 222.792969 207.058594 223.425781 206.6875 224.09375 C 206.300781 224.753906 205.992188 225.46875 205.769531 226.214844 C 205.3125 227.691406 205.082031 229.265625 205.113281 230.84375 " fill-opacity="1" fill-rule="nonzero"/></g></g><g clip-path="url(#acf67ef653)"><g clip-path="url(#a7e3c58600)"><path fill="#9a4f36" d="M 209.027344 236.050781 C 209.027344 236.050781 208.871094 234.78125 208.964844 232.875 C 209.015625 231.917969 209.128906 230.800781 209.394531 229.621094 C 209.523438 229.027344 209.675781 228.421875 209.90625 227.824219 C 210.089844 227.207031 210.417969 226.628906 210.699219 226.035156 C 211.046875 225.46875 211.398438 224.898438 211.84375 224.40625 C 212.3125 223.9375 212.742188 223.433594 213.308594 223.113281 C 213.574219 222.925781 213.839844 222.757812 214.097656 222.578125 C 214.378906 222.464844 214.664062 222.347656 214.929688 222.230469 C 215.210938 222.125 215.484375 222.015625 215.734375 221.910156 C 216.007812 221.863281 216.265625 221.816406 216.519531 221.761719 C 217.023438 221.6875 217.496094 221.542969 217.902344 221.550781 C 218.3125 221.550781 218.671875 221.550781 218.964844 221.550781 C 219.566406 221.550781 219.902344 221.550781 219.902344 221.550781 L 219.695312 223.28125 C 219.695312 223.28125 219.402344 223.261719 218.886719 223.222656 C 218.632812 223.195312 218.320312 223.167969 217.957031 223.140625 C 217.589844 223.089844 217.199219 223.195312 216.765625 223.222656 C 216.546875 223.234375 216.316406 223.261719 216.082031 223.28125 C 215.859375 223.351562 215.625 223.425781 215.386719 223.5 C 215.148438 223.570312 214.902344 223.644531 214.652344 223.726562 C 214.417969 223.847656 214.195312 223.976562 213.957031 224.113281 C 213.445312 224.339844 213.042969 224.746094 212.59375 225.121094 C 212.164062 225.519531 211.800781 226.003906 211.441406 226.492188 C 211.140625 227.011719 210.785156 227.515625 210.566406 228.089844 C 210.296875 228.632812 210.105469 229.207031 209.925781 229.757812 C 209.574219 230.875 209.363281 231.960938 209.238281 232.894531 C 208.980469 234.777344 209.027344 236.050781 209.027344 236.050781 " fill-opacity="1" fill-rule="nonzero"/></g></g><g clip-path="url(#0c1eb5b3b5)"><g clip-path="url(#10ef69155d)"><path fill="#f0a176" d="M 382.8125 232.300781 C 382.8125 246.1875 382.789062 262.203125 377.652344 277.703125 C 366.109375 312.457031 323.671875 344.65625 301.304688 344.65625 C 278.609375 344.65625 235.785156 311.515625 224.460938 276.191406 C 219.648438 261.164062 219.796875 245.738281 219.796875 232.300781 C 219.796875 187.292969 228.121094 128.378906 301.304688 128.378906 C 374.480469 128.378906 382.8125 187.292969 382.8125 232.300781 " fill-opacity="1" fill-rule="nonzero"/></g></g><g clip-path="url(#dbc00d28f5)"><g clip-path="url(#23b6d076e2)"><path fill="#d6855a" d="M 298.863281 180.347656 C 275.242188 180.347656 254.464844 171.234375 239.214844 161.851562 C 241.128906 157.816406 243.289062 154.03125 245.710938 150.605469 C 248.101562 152.8125 266.585938 168.914062 297.945312 168.914062 C 308.648438 168.914062 320.855469 167.039062 334.4375 162.089844 C 334.4375 162.089844 339.542969 161 346.132812 161 C 354.234375 161 364.589844 162.648438 370.507812 170.011719 C 367.753906 169.554688 364.792969 169.371094 361.800781 169.371094 C 348.644531 169.371094 334.839844 172.945312 334.839844 172.945312 C 322.382812 178.214844 310.289062 180.347656 298.863281 180.347656 " fill-opacity="1" fill-rule="nonzero"/></g></g><g clip-path="url(#4534870af5)"><g clip-path="url(#1e14dc9742)"><path fill="#c3744e" d="M 301.339844 344.65625 C 301.347656 344.65625 301.347656 344.65625 301.351562 344.65625 C 301.347656 344.65625 301.347656 344.65625 301.339844 344.65625 M 301.386719 344.65625 C 301.386719 344.65625 301.394531 344.65625 301.394531 344.65625 C 301.394531 344.65625 301.386719 344.65625 301.386719 344.65625 M 301.433594 344.65625 C 301.441406 344.65625 301.441406 344.65625 301.441406 344.65625 C 301.441406 344.65625 301.441406 344.65625 301.433594 344.65625 M 301.476562 344.65625 C 301.480469 344.65625 301.480469 344.65625 301.488281 344.65625 C 301.480469 344.65625 301.480469 344.65625 301.476562 344.65625 M 301.523438 344.65625 C 301.523438 344.65625 301.53125 344.65625 301.53125 344.65625 C 301.53125 344.65625 301.523438 344.65625 301.523438 344.65625 M 301.570312 344.65625 C 301.578125 344.65625 301.578125 344.65625 301.578125 344.65625 C 301.578125 344.65625 301.578125 344.65625 301.570312 344.65625 M 301.613281 344.65625 C 301.617188 344.65625 301.617188 344.65625 301.625 344.65625 C 301.617188 344.65625 301.617188 344.65625 301.613281 344.65625 M 301.707031 344.65625 C 301.707031 344.65625 301.714844 344.65625 301.71875 344.65625 C 301.714844 344.65625 301.707031 344.65625 301.707031 344.65625 M 301.746094 344.65625 C 301.753906 344.65625 301.753906 344.65625 301.761719 344.65625 C 301.753906 344.65625 301.753906 344.65625 301.746094 344.65625 M 301.800781 344.65625 C 301.800781 344.65625 301.800781 344.65625 301.808594 344.65625 C 301.800781 344.65625 301.800781 344.65625 301.800781 344.65625 M 301.84375 344.65625 C 301.84375 344.65625 301.851562 344.65625 301.851562 344.65625 C 301.851562 344.65625 301.84375 344.65625 301.84375 344.65625 M 301.9375 344.648438 C 301.9375 344.648438 301.945312 344.648438 301.945312 344.648438 C 301.945312 344.648438 301.9375 344.648438 301.9375 344.648438 M 301.980469 344.648438 C 301.980469 344.648438 301.988281 344.648438 301.988281 344.648438 C 301.988281 344.648438 301.980469 344.648438 301.980469 344.648438 M 302.074219 344.648438 C 302.074219 344.648438 302.082031 344.648438 302.082031 344.648438 C 302.074219 344.648438 302.074219 344.648438 302.074219 344.648438 M 302.210938 344.640625 C 302.210938 344.640625 302.21875 344.640625 302.21875 344.640625 C 302.21875 344.640625 302.210938 344.640625 302.210938 344.640625 M 302.308594 344.636719 L 302.3125 344.636719 L 302.308594 344.636719 M 302.539062 344.628906 L 302.546875 344.628906 L 302.539062 344.628906 M 302.585938 344.628906 L 302.59375 344.628906 C 302.585938 344.628906 302.585938 344.628906 302.585938 344.628906 " fill-opacity="1" fill-rule="nonzero"/></g></g><g clip-path="url(#e89ed3a87c)"><g clip-path="url(#24c44b8d61)"><path fill="#d6855a" d="M 301.304688 344.65625 C 278.609375 344.65625 235.785156 311.515625 224.460938 276.191406 C 221.257812 266.191406 220.253906 256.019531 219.941406 246.371094 C 219.90625 245.4375 219.886719 244.511719 219.867188 243.589844 C 219.824219 241.464844 219.804688 239.371094 219.796875 237.3125 C 219.796875 236.808594 219.796875 236.304688 219.796875 235.796875 C 219.796875 235.421875 219.796875 235.054688 219.796875 234.679688 C 219.796875 233.882812 219.796875 233.09375 219.796875 232.300781 C 219.796875 226.511719 220.117188 220.332031 220.8125 213.992188 C 223.035156 203.804688 229.042969 179.148438 238.402344 161.347656 C 238.675781 161.519531 238.941406 161.6875 239.214844 161.851562 C 230.175781 180.90625 226.5625 205.613281 226.5625 224.964844 C 226.5625 238.402344 226.410156 253.828125 231.222656 268.855469 C 242.546875 304.183594 285.371094 337.320312 308.066406 337.320312 C 321.625 337.320312 342.5625 325.472656 359.515625 308.402344 C 342.242188 328.714844 318.199219 343.753906 302.683594 344.621094 C 302.648438 344.621094 302.621094 344.621094 302.59375 344.628906 L 302.585938 344.628906 C 302.574219 344.628906 302.558594 344.628906 302.546875 344.628906 L 302.539062 344.628906 C 302.511719 344.628906 302.484375 344.628906 302.449219 344.636719 C 302.402344 344.636719 302.355469 344.636719 302.3125 344.636719 L 302.308594 344.636719 C 302.28125 344.640625 302.253906 344.640625 302.21875 344.640625 C 302.21875 344.640625 302.210938 344.640625 302.210938 344.640625 C 302.199219 344.640625 302.183594 344.640625 302.171875 344.640625 C 302.15625 344.640625 302.136719 344.640625 302.121094 344.640625 C 302.109375 344.648438 302.09375 344.648438 302.082031 344.648438 C 302.082031 344.648438 302.074219 344.648438 302.074219 344.648438 C 302.0625 344.648438 302.046875 344.648438 302.035156 344.648438 C 302.019531 344.648438 302 344.648438 301.988281 344.648438 C 301.988281 344.648438 301.980469 344.648438 301.980469 344.648438 C 301.964844 344.648438 301.960938 344.648438 301.945312 344.648438 C 301.945312 344.648438 301.9375 344.648438 301.9375 344.648438 C 301.90625 344.648438 301.882812 344.648438 301.851562 344.65625 C 301.851562 344.65625 301.84375 344.65625 301.84375 344.65625 C 301.828125 344.65625 301.816406 344.65625 301.808594 344.65625 C 301.800781 344.65625 301.800781 344.65625 301.800781 344.65625 C 301.789062 344.65625 301.773438 344.65625 301.761719 344.65625 C 301.753906 344.65625 301.753906 344.65625 301.746094 344.65625 C 301.742188 344.65625 301.726562 344.65625 301.71875 344.65625 C 301.714844 344.65625 301.707031 344.65625 301.707031 344.65625 C 301.695312 344.65625 301.679688 344.65625 301.667969 344.65625 C 301.652344 344.65625 301.640625 344.65625 301.625 344.65625 C 301.617188 344.65625 301.617188 344.65625 301.613281 344.65625 C 301.605469 344.65625 301.589844 344.65625 301.578125 344.65625 C 301.578125 344.65625 301.578125 344.65625 301.570312 344.65625 C 301.558594 344.65625 301.542969 344.65625 301.53125 344.65625 C 301.53125 344.65625 301.523438 344.65625 301.523438 344.65625 C 301.507812 344.65625 301.503906 344.65625 301.488281 344.65625 C 301.480469 344.65625 301.480469 344.65625 301.476562 344.65625 C 301.460938 344.65625 301.453125 344.65625 301.441406 344.65625 C 301.441406 344.65625 301.441406 344.65625 301.433594 344.65625 C 301.421875 344.65625 301.40625 344.65625 301.394531 344.65625 C 301.394531 344.65625 301.386719 344.65625 301.386719 344.65625 C 301.371094 344.65625 301.367188 344.65625 301.351562 344.65625 C 301.347656 344.65625 301.347656 344.65625 301.339844 344.65625 C 301.324219 344.65625 301.3125 344.65625 301.304688 344.65625 " fill-opacity="1" fill-rule="nonzero"/></g></g><g clip-path="url(#2eb5752bb3)"><g clip-path="url(#324d6de558)"><path fill="#cf7d53" d="M 239.214844 161.851562 C 238.941406 161.6875 238.675781 161.519531 238.402344 161.347656 C 240.570312 157.230469 242.921875 153.472656 245.445312 150.351562 C 245.445312 150.351562 245.535156 150.441406 245.710938 150.605469 C 243.289062 154.03125 241.128906 157.816406 239.214844 161.851562 " fill-opacity="1" fill-rule="nonzero"/></g></g><g clip-path="url(#f18e72a65a)"><g clip-path="url(#d8b32554de)"><path fill="#211a1b" d="M 239.363281 203.988281 C 239.363281 203.988281 248.667969 195.707031 257.640625 197.75 C 266.613281 199.789062 280.554688 199.777344 284.644531 195.222656 C 284.644531 195.222656 254.265625 183.035156 239.363281 203.988281 " fill-opacity="1" fill-rule="nonzero"/></g></g><g clip-path="url(#82d81fdac4)"><g clip-path="url(#1e269fc8e1)"><path fill="#211a1b" d="M 360.566406 203.988281 C 360.566406 203.988281 351.261719 195.707031 342.289062 197.75 C 333.316406 199.789062 319.378906 199.777344 315.285156 195.222656 C 315.285156 195.222656 345.671875 183.035156 360.566406 203.988281 " fill-opacity="1" fill-rule="nonzero"/></g></g><g clip-path="url(#34ab4b15cf)"><g clip-path="url(#d454c62dde)"><path fill="#b05838" d="M 286.785156 268.480469 C 286.785156 268.480469 286.765625 268.324219 286.722656 268.03125 C 286.675781 267.738281 286.613281 267.3125 286.675781 266.722656 C 286.722656 266.136719 286.824219 265.425781 287.117188 264.667969 C 287.371094 263.886719 287.800781 263.058594 288.378906 262.222656 C 288.953125 261.390625 289.675781 260.542969 290.5625 259.800781 C 291.433594 259.023438 292.457031 258.328125 293.59375 257.75 C 294.734375 257.191406 295.953125 256.660156 297.261719 256.371094 C 298.597656 256.019531 299.859375 255.914062 301.378906 255.867188 C 302.019531 255.914062 302.566406 255.894531 303.289062 255.996094 C 304.003906 256.078125 304.699219 256.195312 305.339844 256.367188 C 306.65625 256.652344 307.875 257.191406 309.015625 257.742188 C 310.148438 258.324219 311.175781 259.019531 312.042969 259.796875 C 312.933594 260.539062 313.65625 261.390625 314.230469 262.222656 C 314.808594 263.058594 315.230469 263.886719 315.492188 264.664062 C 315.785156 265.425781 315.886719 266.140625 315.933594 266.707031 C 315.988281 267.285156 315.933594 267.730469 315.878906 268.03125 C 315.847656 268.324219 315.820312 268.480469 315.820312 268.480469 C 315.820312 268.480469 315.777344 268.332031 315.695312 268.042969 C 315.632812 267.757812 315.476562 267.363281 315.257812 266.878906 C 315.042969 266.402344 314.726562 265.847656 314.304688 265.277344 C 313.894531 264.695312 313.332031 264.117188 312.714844 263.523438 C 312.070312 262.953125 311.320312 262.398438 310.488281 261.886719 C 309.664062 261.363281 308.714844 260.953125 307.742188 260.539062 C 306.757812 260.164062 305.703125 259.871094 304.617188 259.671875 C 304.066406 259.550781 303.546875 259.507812 303.03125 259.449219 C 302.53125 259.367188 301.824219 259.386719 301.230469 259.351562 C 300.261719 259.386719 299.035156 259.449219 297.984375 259.671875 C 296.902344 259.871094 295.851562 260.15625 294.863281 260.539062 C 293.894531 260.953125 292.941406 261.355469 292.117188 261.886719 C 291.285156 262.398438 290.535156 262.953125 289.894531 263.523438 C 289.273438 264.117188 288.707031 264.691406 288.296875 265.277344 C 287.875 265.84375 287.5625 266.40625 287.351562 266.871094 C 287.132812 267.335938 286.976562 267.75 286.914062 268.042969 C 286.832031 268.332031 286.785156 268.480469 286.785156 268.480469 " fill-opacity="1" fill-rule="nonzero"/></g></g><g clip-path="url(#7c5b9a0008)"><g clip-path="url(#79e47a0239)"><path fill="#ffffff" d="M 268.085938 282.515625 C 268.085938 282.515625 294.121094 297.351562 334.839844 282.515625 C 334.839844 282.515625 302.6875 329.636719 268.085938 282.515625 " fill-opacity="1" fill-rule="nonzero"/></g></g><g clip-path="url(#3f29d414fb)"><g clip-path="url(#0529ace013)"><path fill="#c7d3df" d="M 268.085938 282.515625 C 268.492188 283.0625 268.890625 283.585938 269.296875 284.105469 C 278.445312 290.875 300.867188 302.804688 333.324219 284.519531 C 334.605469 282.953125 334.839844 282.515625 334.839844 282.515625 C 294.121094 297.351562 268.085938 282.515625 268.085938 282.515625 " fill-opacity="1" fill-rule="nonzero"/></g></g><g clip-path="url(#7c3adc252d)"><g clip-path="url(#32cf3048ca)"><path fill="#ad6544" d="M 291.863281 311.53125 C 291.863281 311.53125 301.460938 316.113281 311.058594 311.53125 C 311.058594 311.53125 302.75 326.425781 291.863281 311.53125 " fill-opacity="1" fill-rule="nonzero"/></g></g><g clip-path="url(#a34fcbc44d)"><g clip-path="url(#18b7f6fd33)"><path fill="#d6855a" d="M 301.660156 273.886719 C 293.054688 273.886719 286.785156 270.300781 286.785156 270.300781 C 289.292969 261.539062 298.230469 260.898438 300.78125 260.898438 C 301.214844 260.898438 301.460938 260.917969 301.460938 260.917969 C 301.632812 260.914062 301.796875 260.914062 301.960938 260.914062 C 312.207031 260.914062 315.820312 270.300781 315.820312 270.300781 C 310.84375 272.992188 305.960938 273.886719 301.660156 273.886719 " fill-opacity="1" fill-rule="nonzero"/></g></g><g clip-path="url(#a8376719c8)"><g clip-path="url(#11e7af6acf)"><path fill="#211a1b" d="M 277.199219 292.898438 C 275.386719 290.109375 273.898438 287.117188 272.796875 284.601562 C 269.714844 283.445312 268.085938 282.515625 268.085938 282.515625 C 271.152344 286.6875 274.191406 290.109375 277.199219 292.898438 " fill-opacity="1" fill-rule="nonzero"/></g></g><g clip-path="url(#f1bfad95f2)"><g clip-path="url(#7bf11ed917)"><path fill="#211a1b" d="M 325.371094 292.859375 C 331.320312 287.664062 334.839844 282.515625 334.839844 282.515625 C 333.425781 283.027344 332.042969 283.5 330.671875 283.941406 C 329.363281 286.585938 327.550781 289.871094 325.371094 292.859375 " fill-opacity="1" fill-rule="nonzero"/></g></g><g clip-path="url(#0a8fd2e324)"><g clip-path="url(#1a4280125f)"><path fill="#211a1b" d="M 219.839844 218.679688 C 219.839844 218.679688 228.867188 170.859375 245.445312 150.351562 C 245.445312 150.351562 278.132812 182.597656 334.4375 162.089844 C 334.4375 162.089844 362.449219 156.085938 372.046875 172.226562 C 372.046875 172.226562 378.953125 218.679688 382.21875 218.832031 C 382.21875 218.832031 411.640625 177.402344 403.652344 120.683594 C 403.652344 120.683594 383.472656 122.550781 364.273438 110.054688 C 364.273438 110.054688 318.464844 56.546875 245.601562 95.378906 C 245.601562 95.378906 243.261719 83.558594 247.625 68.722656 C 247.625 68.722656 234.972656 88.792969 235.847656 102.753906 C 235.847656 102.753906 223.058594 100.574219 213.308594 103.191406 C 213.308594 103.191406 226.34375 105.371094 230.875 108.425781 C 230.875 108.425781 191.617188 126.117188 219.839844 218.679688 " fill-opacity="1" fill-rule="nonzero"/></g></g><g clip-path="url(#41a4e1b66a)"><g clip-path="url(#974318de6e)"><path fill="#4a3835" d="M 310.390625 149.0625 C 298.632812 149.0625 285.242188 146.453125 270.546875 139.375 C 255.472656 132.121094 243.105469 129.476562 233.070312 129.476562 C 224.960938 129.476562 218.367188 131.210938 213.109375 133.644531 C 215.804688 124.761719 219.621094 118.796875 223.03125 114.894531 C 226.308594 114.390625 230.304688 114.003906 234.851562 114.003906 C 246.359375 114.003906 261.390625 116.496094 277.199219 125.917969 C 293.371094 135.550781 309.609375 139.382812 324.203125 139.382812 C 340.027344 139.375 353.917969 134.875 363.683594 128.378906 C 363.683594 128.378906 343.503906 149.0625 310.390625 149.0625 " fill-opacity="1" fill-rule="nonzero"/></g></g><g clip-path="url(#08f943d5f6)"><g clip-path="url(#5f2e89f2f1)"><path fill="#337393" d="M 392.527344 627.691406 C 393.617188 619.761719 394.753906 611.445312 395.921875 602.84375 C 267.996094 637.472656 199.277344 558.777344 199.273438 558.761719 C 202.460938 582.949219 205.679688 606.730469 208.558594 627.691406 L 392.527344 627.691406 " fill-opacity="1" fill-rule="nonzero"/></g></g><g clip-path="url(#dc8eb53e70)"><g clip-path="url(#068b506075)"><path fill="#211a1b" d="M 279.648438 236.363281 C 279.648438 243.425781 276.476562 249.160156 272.578125 249.160156 C 268.671875 249.160156 265.507812 243.425781 265.507812 236.363281 C 265.507812 229.292969 268.671875 223.5625 272.578125 223.5625 C 276.476562 223.5625 279.648438 229.292969 279.648438 236.363281 " fill-opacity="1" fill-rule="nonzero"/></g></g><g clip-path="url(#cc0c22ab87)"><g clip-path="url(#99de020e31)"><path fill="#211a1b" d="M 337.101562 236.363281 C 337.101562 243.425781 333.9375 249.160156 330.03125 249.160156 C 326.125 249.160156 322.964844 243.425781 322.964844 236.363281 C 322.964844 229.292969 326.125 223.5625 330.03125 223.5625 C 333.9375 223.5625 337.101562 229.292969 337.101562 236.363281 " fill-opacity="1" fill-rule="nonzero"/></g></g></svg>