<svg xmlns="http://www.w3.org/2000/svg" xmlns:xlink="http://www.w3.org/1999/xlink" width="800" zoomAndPan="magnify" viewBox="0 0 600 599.999999" height="800" preserveAspectRatio="xMidYMid meet" version="1.0"><path fill="#673ab7" d="M 600 516.667969 C 600 562.699219 562.699219 600 516.667969 600 L 83.332031 600 C 37.316406 600 0 562.699219 0 516.667969 L 0 83.332031 C 0 37.300781 37.316406 0 83.332031 0 L 516.667969 0 C 562.699219 0 600 37.300781 600 83.332031 Z M 600 516.667969 " fill-opacity="1" fill-rule="nonzero"/><path fill="#ffffff" d="M 450.5 326.667969 C 439.667969 311.667969 424 301.332031 403.832031 295.832031 C 403.832031 295.832031 420.832031 289.667969 436.167969 266.667969 C 445.332031 252 450 234.332031 450 213.667969 C 450 177.832031 437 150.332031 411 131.5 C 385 112.667969 355.667969 100 305.832031 100 L 150 100 L 150 500 L 323.832031 500 C 371 499.667969 406.5 489.5 430.667969 470 C 454.667969 450.167969 466.667969 420.832031 466.667969 381.667969 C 466.667969 360 461.332031 341.667969 450.5 326.667969 Z M 250 166.667969 C 250 166.667969 319.5 166.667969 320.832031 166.667969 C 346.167969 166.667969 366.667969 187.167969 366.667969 212.5 C 366.667969 237.832031 346.167969 258.332031 320.832031 258.332031 C 319.5 258.332031 250 258.332031 250 258.332031 Z M 333.332031 433.332031 L 250 433.332031 L 250 333.332031 L 333.332031 333.332031 C 361 333.332031 383.332031 355.667969 383.332031 383.332031 C 383.332031 411 361 433.332031 333.332031 433.332031 Z M 333.332031 433.332031 " fill-opacity="1" fill-rule="nonzero"/></svg>