<svg xmlns="http://www.w3.org/2000/svg" xmlns:xlink="http://www.w3.org/1999/xlink" width="800" zoomAndPan="magnify" viewBox="0 0 600 599.999999" height="800" preserveAspectRatio="xMidYMid meet" version="1.0"><rect x="-60" width="720" fill="#f7df1e" y="-60" height="719.999999" fill-opacity="1"/><path fill="#000000" d="M 157.761719 501.398438 L 203.679688 473.625 C 212.535156 489.328125 220.59375 502.617188 239.929688 502.617188 C 258.445312 502.617188 270.140625 495.351562 270.140625 467.179688 L 270.140625 275.460938 L 326.507812 275.460938 L 326.507812 467.976562 C 326.507812 526.359375 292.289062 552.960938 242.34375 552.960938 C 197.234375 552.960938 171.050781 529.59375 157.761719 501.398438 " fill-opacity="1" fill-rule="nonzero"/><path fill="#000000" d="M 357.140625 495.351562 L 403.054688 468.773438 C 415.148438 488.507812 430.851562 503.015625 458.625 503.015625 C 481.992188 503.015625 496.898438 491.34375 496.898438 475.21875 C 496.898438 455.882812 481.59375 449.039062 455.8125 437.765625 L 441.726562 431.71875 C 401.039062 414.398438 374.0625 392.671875 374.0625 346.734375 C 374.0625 304.453125 406.265625 272.226562 456.632812 272.226562 C 492.46875 272.226562 518.25 284.71875 536.765625 317.34375 L 492.867188 345.539062 C 483.210938 328.21875 472.734375 321.375 456.632812 321.375 C 440.109375 321.375 429.632812 331.851562 429.632812 345.539062 C 429.632812 362.460938 440.109375 369.304688 464.273438 379.78125 L 478.359375 385.804688 C 526.289062 406.359375 553.289062 427.289062 553.289062 474.421875 C 553.289062 525.164062 513.421875 552.960938 459.84375 552.960938 C 407.484375 552.960938 373.664062 527.976562 357.140625 495.351562 " fill-opacity="1" fill-rule="nonzero"/></svg>