<svg xmlns="http://www.w3.org/2000/svg" xmlns:xlink="http://www.w3.org/1999/xlink" width="800" zoomAndPan="magnify" viewBox="0 0 600 599.999999" height="800" preserveAspectRatio="xMidYMid meet" version="1.0"><path fill="#00d8ff" d="M 493.085938 206.183594 C 486.882812 204.042969 480.441406 202.019531 473.792969 200.101562 C 474.894531 195.652344 475.902344 191.261719 476.792969 186.945312 C 491.375 116.058594 481.847656 58.949219 449.238281 40.144531 C 417.960938 22.117188 366.835938 40.917969 315.191406 85.855469 C 310.230469 90.175781 305.242188 94.75 300.28125 99.546875 C 296.957031 96.375 293.65625 93.308594 290.355469 90.375 C 236.230469 42.324219 181.984375 22.074219 149.410156 40.929688 C 118.175781 59.011719 108.925781 112.699219 122.074219 179.878906 C 123.34375 186.367188 124.828125 192.996094 126.503906 199.734375 C 118.828125 201.914062 111.414062 204.234375 104.324219 206.707031 C 40.875 228.828125 0.355469 263.496094 0.355469 299.460938 C 0.355469 336.589844 43.855469 373.859375 109.941406 396.449219 C 115.152344 398.226562 120.566406 399.914062 126.140625 401.503906 C 124.332031 408.785156 122.757812 415.925781 121.4375 422.902344 C 108.902344 488.917969 118.691406 541.332031 149.84375 559.289062 C 182.015625 577.851562 236.019531 558.773438 288.597656 512.820312 C 292.765625 509.191406 296.933594 505.328125 301.101562 501.300781 C 306.53125 506.5 311.9375 511.4375 317.300781 516.074219 C 368.238281 559.894531 418.546875 577.59375 449.660156 559.59375 C 481.800781 540.980469 492.265625 484.65625 478.6875 416.160156 C 477.65625 410.914062 476.441406 405.578125 475.105469 400.148438 C 478.898438 399.023438 482.621094 397.851562 486.25 396.660156 C 554.957031 373.882812 599.644531 337.105469 599.644531 299.460938 C 599.644531 263.367188 557.8125 228.464844 493.085938 206.183594 Z M 478.195312 372.359375 C 474.917969 373.4375 471.546875 374.488281 468.128906 375.496094 C 460.542969 351.5 450.316406 325.960938 437.765625 299.578125 C 449.730469 273.828125 459.5625 248.625 466.9375 224.769531 C 473.070312 226.542969 479.015625 228.414062 484.75 230.386719 C 540.207031 249.480469 574.035156 277.714844 574.035156 299.460938 C 574.035156 322.613281 537.515625 352.695312 478.195312 372.359375 Z M 453.570312 421.121094 C 459.585938 451.414062 460.425781 478.804688 456.449219 500.222656 C 452.890625 519.46875 445.703125 532.296875 436.832031 537.421875 C 417.9375 548.355469 377.558594 534.144531 334.015625 496.667969 C 329.003906 492.359375 323.972656 487.769531 318.9375 482.925781 C 335.816406 464.453125 352.695312 442.988281 369.175781 419.132812 C 398.132812 416.582031 425.5 412.367188 450.339844 406.632812 C 451.554688 411.570312 452.632812 416.394531 453.570312 421.121094 Z M 204.675781 535.527344 C 186.222656 542.058594 171.527344 542.246094 162.644531 537.117188 C 143.738281 526.210938 135.878906 484.117188 146.601562 427.675781 C 147.828125 421.214844 149.289062 414.566406 150.976562 407.777344 C 175.523438 413.210938 202.695312 417.121094 231.734375 419.460938 C 248.320312 442.800781 265.691406 464.242188 283.175781 483.019531 C 279.363281 486.71875 275.546875 490.226562 271.753906 493.527344 C 248.507812 513.871094 225.210938 528.292969 204.675781 535.527344 Z M 118.230469 372.21875 C 89.007812 362.222656 64.875 349.253906 48.332031 335.066406 C 33.46875 322.355469 25.964844 309.714844 25.964844 299.460938 C 25.964844 277.644531 58.496094 249.800781 112.757812 230.882812 C 119.34375 228.585938 126.234375 226.421875 133.386719 224.390625 C 140.886719 248.785156 150.726562 274.296875 162.597656 300.070312 C 150.570312 326.242188 140.59375 352.15625 133.019531 376.855469 C 127.921875 375.378906 122.980469 373.835938 118.230469 372.21875 Z M 147.207031 174.964844 C 135.945312 117.402344 143.421875 73.984375 162.246094 63.085938 C 182.296875 51.480469 226.628906 68.03125 273.34375 109.519531 C 276.34375 112.171875 279.339844 114.949219 282.359375 117.820312 C 264.941406 136.515625 247.734375 157.800781 231.296875 181 C 203.109375 183.609375 176.132812 187.804688 151.328125 193.425781 C 149.765625 187.152344 148.386719 180.988281 147.207031 174.964844 Z M 405.699219 238.796875 C 399.773438 228.554688 393.6875 218.550781 387.484375 208.824219 C 406.609375 211.242188 424.917969 214.449219 442.125 218.375 C 436.972656 234.929688 430.535156 252.238281 422.949219 269.988281 C 417.519531 259.660156 411.761719 249.253906 405.699219 238.796875 Z M 300.285156 136.117188 C 312.105469 148.910156 323.925781 163.191406 335.5625 178.691406 C 323.832031 178.136719 311.964844 177.851562 300.003906 177.851562 C 288.15625 177.851562 276.382812 178.128906 264.722656 178.675781 C 276.359375 163.320312 288.296875 149.058594 300.28125 136.117188 Z M 194.195312 238.972656 C 188.273438 249.242188 182.628906 259.59375 177.277344 269.964844 C 169.824219 252.28125 163.441406 234.894531 158.234375 218.105469 C 175.332031 214.28125 193.566406 211.148438 212.566406 208.777344 C 206.273438 218.597656 200.132812 228.671875 194.195312 238.96875 Z M 213.113281 391.953125 C 193.484375 389.777344 174.976562 386.804688 157.882812 383.082031 C 163.175781 365.992188 169.691406 348.246094 177.304688 330.175781 C 182.667969 340.546875 188.335938 350.894531 194.296875 361.195312 C 200.367188 371.679688 206.65625 381.933594 213.113281 391.953125 Z M 300.984375 464.59375 C 288.859375 451.507812 276.757812 437.019531 264.933594 421.449219 C 276.40625 421.894531 288.109375 422.128906 300.003906 422.128906 C 312.222656 422.128906 324.300781 421.847656 336.171875 421.332031 C 324.511719 437.183594 312.714844 451.695312 300.984375 464.59375 Z M 423.183594 329.261719 C 431.191406 347.523438 437.957031 365.171875 443.316406 381.980469 C 425.949219 385.9375 407.171875 389.121094 387.414062 391.507812 C 393.640625 381.652344 399.773438 371.46875 405.816406 361.007812 C 411.925781 350.425781 417.707031 339.820312 423.183594 329.261719 Z M 383.621094 348.222656 C 374.257812 364.472656 364.636719 379.96875 354.875 394.597656 C 337.105469 395.863281 318.730469 396.519531 300.003906 396.519531 C 281.34375 396.519531 263.203125 395.957031 245.738281 394.808594 C 235.578125 379.992188 225.757812 364.449219 216.449219 348.363281 L 216.453125 348.363281 C 207.167969 332.328125 198.625 316.152344 190.882812 300.070312 C 198.621094 283.964844 207.144531 267.765625 216.375 251.757812 L 216.371094 251.761719 C 225.625 235.714844 235.367188 220.238281 245.433594 205.5 C 263.25 204.152344 281.53125 203.449219 300.003906 203.449219 C 318.566406 203.449219 336.847656 204.160156 354.664062 205.519531 C 364.589844 220.148438 374.257812 235.570312 383.550781 251.625 C 392.9375 267.859375 401.578125 283.941406 409.375 299.71875 C 401.601562 315.753906 392.984375 332 383.621094 348.222656 Z M 436.433594 62.320312 C 456.519531 73.894531 464.316406 120.566406 451.699219 181.769531 C 450.902344 185.675781 449.988281 189.652344 449.007812 193.683594 C 424.144531 187.945312 397.152344 183.679688 368.898438 181.027344 C 352.417969 157.578125 335.351562 136.257812 318.214844 117.800781 C 322.828125 113.371094 327.4375 109.144531 332.003906 105.160156 C 376.25 66.65625 417.613281 51.457031 436.433594 62.320312 Z M 300.003906 245.933594 C 329.546875 245.933594 353.515625 269.886719 353.515625 299.453125 C 353.515625 328.996094 329.546875 352.96875 300.003906 352.96875 C 270.460938 352.96875 246.488281 328.996094 246.488281 299.453125 C 246.488281 269.886719 270.460938 245.933594 300.003906 245.933594 Z M 300.003906 245.933594 " fill-opacity="1" fill-rule="nonzero"/></svg>