<svg xmlns="http://www.w3.org/2000/svg" xmlns:xlink="http://www.w3.org/1999/xlink" width="800" zoomAndPan="magnify" viewBox="0 0 600 599.999999" height="800" preserveAspectRatio="xMidYMid meet" version="1.0"><path fill="#ffffff" d="M 141.574219 213.410156 L 254.742188 213.410156 L 254.742188 222.40625 L 151.945312 222.40625 L 151.945312 290.097656 L 248.613281 290.097656 L 248.613281 299.097656 L 151.945312 299.097656 L 151.945312 373.417969 L 255.914062 373.417969 L 255.914062 382.417969 L 141.574219 382.417969 Z M 264.878906 213.410156 L 276.902344 213.410156 L 330.1875 287.730469 L 384.644531 213.410156 L 458.71875 119.003906 L 337.019531 295.546875 L 399.738281 382.417969 L 387.234375 382.417969 L 330.1875 303.351562 L 272.894531 382.417969 L 260.636719 382.417969 L 323.8125 295.546875 Z M 404.214844 222.40625 L 404.214844 213.410156 L 533.179688 213.410156 L 533.179688 222.40625 L 473.765625 222.40625 L 473.765625 382.414062 L 463.394531 382.414062 L 463.394531 222.40625 L 404.214844 222.402344 Z M 0 213.410156 L 12.964844 213.410156 L 191.769531 480.972656 L 117.882812 382.417969 L 10.851562 226.195312 L 10.378906 382.417969 L 0.0078125 382.417969 L 0.0078125 213.410156 Z M 532.125 370.710938 C 530.015625 370.710938 528.421875 369.058594 528.421875 366.9375 C 528.421875 364.816406 530.015625 363.175781 532.125 363.175781 C 534.269531 363.175781 535.839844 364.816406 535.839844 366.9375 C 535.839844 369.058594 534.269531 370.710938 532.125 370.710938 Z M 542.320312 360.796875 L 547.875 360.796875 C 547.945312 363.808594 550.148438 365.824219 553.371094 365.824219 C 556.980469 365.824219 559.019531 363.65625 559.019531 359.589844 L 559.019531 333.820312 L 564.679688 333.820312 L 564.679688 359.613281 C 564.679688 366.9375 560.4375 371.15625 553.429688 371.15625 C 546.84375 371.15625 542.320312 367.066406 542.320312 360.796875 Z M 572.074219 360.46875 L 577.675781 360.46875 C 578.144531 363.9375 581.53125 366.128906 586.40625 366.128906 C 590.941406 366.128906 594.269531 363.785156 594.269531 360.550781 C 594.269531 357.773438 592.148438 356.097656 587.332031 354.960938 L 582.644531 353.824219 C 576.058594 352.289062 573.058594 349.101562 573.058594 343.746094 C 573.058594 337.253906 578.355469 332.941406 586.300781 332.941406 C 593.695312 332.941406 599.085938 337.253906 599.414062 343.394531 L 593.917969 343.394531 C 593.390625 340.03125 590.460938 337.933594 586.21875 337.933594 C 581.753906 337.933594 578.777344 340.089844 578.777344 343.371094 C 578.777344 345.972656 580.699219 347.460938 585.445312 348.574219 L 589.453125 349.558594 C 596.917969 351.304688 600 354.339844 600 359.8125 C 600 366.785156 594.597656 371.15625 585.972656 371.15625 C 577.898438 371.15625 572.472656 366.996094 572.074219 360.46875 Z M 572.074219 360.46875 " fill-opacity="1" fill-rule="nonzero"/></svg>